PathFileType	4	(X/Y/Z)	RBDS027\RBDS027runT25.trc
DataRate	CameraRate	NumFrames	NumMarkers	Units	OrigDataRate	OrigDataStartFrame	OrigNumFrames
150.000000	150.000000	4	33	mm	150.000000	1687	4500
Frame#	Time	L.ASIS			L.Heel.Bottom			L.Heel.Lateral			L.Heel.Top			L.Iliac.Crest			L.MT1			L.MT5			L.PSIS			L.Shank.Bottom.Lateral			L.Shank.Bottom.Medial			L.Shank.Top.Lateral			L.Shank.Top.Medial			L.Thigh.Bottom.Lateral			L.Thigh.Bottom.Medial			L.Thigh.Top.Lateral			L.Thigh.Top.Medial			R.ASIS			R.ASY			R.Heel.Bottom			R.Heel.Lateral			R.Heel.Top			R.Iliac.Crest			R.MT1			R.MT5			R.PSIS			R.Shank.Bottom.Lateral			R.Shank.Bottom.Medial			R.Shank.Top.Lateral			R.Shank.Top.Medial			R.Thigh.Bottom.Lateral			R.Thigh.Bottom.Medial			R.Thigh.Top.Lateral			R.Thigh.Top.Medial			
		X1	Y1	Z1	X2	Y2	Z2	X3	Y3	Z3	X4	Y4	Z4	X5	Y5	Z5	X6	Y6	Z6	X7	Y7	Z7	X8	Y8	Z8	X9	Y9	Z9	X10	Y10	Z10	X11	Y11	Z11	X12	Y12	Z12	X13	Y13	Z13	X14	Y14	Z14	X15	Y15	Z15	X16	Y16	Z16	X17	Y17	Z17	X18	Y18	Z18	X19	Y19	Z19	X20	Y20	Z20	X21	Y21	Z21	X22	Y22	Z22	X23	Y23	Z23	X24	Y24	Z24	X25	Y25	Z25	X26	Y26	Z26	X27	Y27	Z27	X28	Y28	Z28	X29	Y29	Z29	X30	Y30	Z30	X31	Y31	Z31	X32	Y32	Z32	X33	Y33	Z33	

1688	11.24666666666667	2126.220489986671	902.335481236169	875.881748131224	1882.866157862273	193.9618666680102	940.0308270323691	1917.147589022881	195.4853000709683	893.0678098650918	1922.606731876863	225.2556513588955	940.953214617494	2068.325005342475	981.7279848057699	844.4014972774094	2066.1677620206	75.48232028649241	959.7614966317989	2030.251995196193	100.3533718750901	855.3442650820455	1964.534928654177	935.3776334792581	954.405350344366	2013.414430284533	257.0830402327236	875.3649041818161	1986.015342413852	278.2496923226055	919.5381403722691	2045.841300282353	330.0682982257505	863.0736212470847	2023.306571852635	349.5207081922562	908.2573756459034	2182.863617085005	574.1944879741931	824.026783077914	2134.125715413847	544.606000353451	867.2213198708686	2115.711560477313	661.1518247053035	811.9514609402992	2069.690566895871	633.600592267856	854.0601591563276	2121.215426580223	898.0284071755594	1138.690224057622	1814.439571888697	81.33861648204086	1033.823805908042	1641.269739213993	141.1371953615113	993.4934894166271	1665.485749008952	132.7803397789561	1042.516756866062	1673.7604588929	171.0669048309732	1004.376497208023	2085.379690880729	979.0970484440899	1154.637760140081	1820.645576264544	30.56862006198655	975.206215147517	1770.594107860402	41.53389326685397	1084.912041354842	1966.993861746808	937.8770051381449	1051.331924348087	1756.31813044065	210.0695356783947	1073.792443200854	1738.963600519094	237.1759551527695	1034.550308491267	1792.844920614705	280.5393382314684	1103.82136641603	1773.012301748342	305.4574606346667	1061.050718955273	1969.468955397058	542.5864103260957	1153.52353258614	1916.653579183348	554.3895428167131	1105.075616524427	1973.075032673616	650.9493707954661	1170.560632417467	1923.130950078919	663.0861923561988	1123.158280529983	
1689	11.25333333333333	2128.190058471653	908.1471927958114	875.8174023818481	1900.836011749338	177.5314583288244	940.4593548407709	1935.035701770478	180.8958276192724	893.565629820543	1938.482599550276	211.245893533412	941.3321733153674	2070.040490580715	988.5226695705363	844.7275880388594	2091.097600982282	70.92333301326563	961.4056523554292	2053.953473293298	92.79633661130866	856.7432184560555	1966.818565436359	940.9397489179692	954.4449062886857	2027.197186788768	248.9157616343525	876.2831595186763	1998.787752611207	268.3382514048936	920.5816469727681	2055.170837304403	323.7765012256506	863.9580102434328	2031.686475394103	341.7082969258801	909.3172593314575	2184.304246696453	579.005410568688	825.4697218383876	2134.883726856152	549.526589027788	867.8963665844012	2117.673296486074	666.2628315549342	812.7405353438127	2071.11310146506	638.9187937088594	854.3540934159488	2123.76961530091	901.7741955034236	1137.946414507563	1803.372200363141	82.871636406102	1035.617183976572	1633.22903621626	151.970361919251	995.8547229771785	1657.134540288717	141.8897825688578	1044.673092354359	1667.221471319007	180.1005876779063	1006.935407734221	2089.945784373168	984.9068793995476	1153.660536426956	1806.771024843892	32.07920552794235	976.1179533720493	1757.233335910849	44.10338568834675	1085.87650348197	1969.570442995906	943.2243661884989	1051.817340943057	1747.482119448655	216.257545284308	1075.762502647506	1730.880315854452	242.5501187034394	1035.589992211848	1783.249750745865	287.4092381049579	1105.12517013656	1764.115796624996	311.4360820479512	1061.541585348288	1962.079344350425	549.9292162386743	1154.73329781512	1910.50950589672	563.3099025995259	1105.252531196507	1969.082151705167	658.1981050042774	1171.327426052167	1920.410506340351	671.7487707459939	1122.948012837019	
1690	11.26	2130.161346770044	913.4969245351394	875.807266689084	1919.79550053521	161.3894469673959	941.176442686899	1953.705203865344	166.5736353246774	894.2873236540329	1955.212427503435	197.3749048767815	941.910663532816	2071.867485095278	994.8630339405786	845.0469945745709	2116.276860975803	67.03884238573592	962.9855646705796	2077.88739244091	85.84131021406836	858.1308551181719	1969.176071125737	946.2499839370663	954.4859502117362	2041.340116898386	240.7991005480892	877.258662962874	2012.069381273638	258.3985575001063	921.6886064912112	2064.666694561028	317.273652980674	864.8179182974174	2040.350261652798	333.6283648687154	910.3592882384419	2185.222817947268	583.1521129358928	826.9729835944298	2135.099415394758	553.8888912681289	868.6485774693191	2119.304548273308	670.8393418404255	813.6392810544717	2072.1760064816	643.8160880497034	854.7744817244491	2126.288412394337	905.2049391230312	1137.290144967233	1792.70609513659	84.94645214040143	1037.445274677742	1625.857975091893	163.0556691491773	998.5539932239857	1649.406030644063	151.2625175808267	1047.126565250156	1661.265580329231	189.331113150816	1009.783081329331	2094.490926508231	990.3120758454249	1152.793320212698	1793.348445623813	34.17722905872279	977.1635897450121	1744.420915584868	47.20281135649893	1086.963634371341	1972.15535616092	948.4089175096931	1052.288391148553	1739.231455406427	222.5015737762084	1077.882708956169	1723.307545549432	247.9885210667755	1036.849935743304	1774.365984970207	294.2847077738733	1106.514049039255	1755.808150551324	317.4562780636618	1062.209688615711	1955.275971864862	557.118553151608	1155.870166515298	1904.914709937454	571.9071223246799	1105.431515275712	1965.482716098463	665.1967160216593	1172.041106889128	1918.107587007751	679.9915018856826	1122.711381472782	
1691	11.26666666666667	2132.099545077278	918.3262392449974	875.8751834134891	1939.65582404878	145.732431250173	942.1987446861292	1973.079937581288	152.6928472024714	895.2450066599824	1972.732279294641	183.827263569035	942.702996309022	2073.767573091756	1000.649336705776	845.3506534242667	2141.589052494549	63.90786749362368	964.4895091167035	2101.950478270697	79.58361647057782	859.499818731384	1971.571515826088	951.2677379599294	954.5343733513284	2055.817911544589	232.8339471126867	878.2797221119339	2025.808952935005	248.5586691469136	922.8295172619247	2074.337670639641	310.6315782995867	865.6412460862467	2049.287382981957	325.3816436179103	911.3543381596016	2185.594810916692	586.6053022155915	828.5053396429264	2134.759440160729	557.6567797510708	869.4586965277535	2120.5639137916	674.836021500223	814.6236855056544	2072.845605605298	648.2362590347697	855.296310888911	2128.730019788052	908.3209109433084	1136.750403875357	1782.40692964548	87.62227515858284	1039.311136938515	1619.04983803163	174.2908996831993	1001.537782459364	1642.197171559027	160.8233714751295	1049.838190901614	1655.764266495001	198.6918900484906	1012.875009055174	2098.906902763213	995.2392302929662	1152.077097089669	1780.366571841443	36.91358661773112	978.3702859985875	1732.144263713166	50.85706226342592	1088.179752768054	1974.711313910846	953.3997380945825	1052.737343886675	1731.511983850369	228.7988079067661	1080.13377419104	1716.156676784962	253.5285719890416	1038.349764308982	1766.188314096449	301.1308671584189	1107.994783520519	1748.05011675264	323.5263417151752	1063.094415091203	1949.098128125161	564.0651961265146	1156.871305184475	1899.874322442615	580.1013074296288	1105.579784054499	1962.296224668683	671.8706600101586	1172.655282378202	1916.196862681669	687.7542158356781	1122.43308463819	
